# xmcd
#
# Track frame offsets:
#	150
#	42080
#	84263
#	150203
#	186735
#	264641
#
# Disc length: 4437 seconds
#
# Revision: 0
# Processed by: cddbd v1.5.2PL0 Copyright (c) Steve Scherf et al.
# Submitted via: audiograbber 1.83.01
#
DISCID=42115306
DTITLE=Grateful Dead - 94-08-01 The Palace, Auburn Hills MI
DYEAR=1900
DGENRE=
TTITLE0=Victim Or The Crime
TTITLE1=Scarlet Begonias
TTITLE2=Fire On The Mountain
TTITLE3=Samba In The Rain
TTITLE4=Estimated Prophet
TTITLE5=Drums
EXTD=
EXTT0=
EXTT1=
EXTT2=
EXTT3=
EXTT4=
EXTT5=
PLAYORDER=
